# xmcd
#
# Track frame offsets: 
#        150
#        13048
#        25750
#        38633
#        52202
#        65043
#        77584
#        91432
#        105303
#        119157
#        132631
#        144698
#        159265
#        170147
#        182596
#        195428
#        208200
#        221052
#        233439
#        244316
#        258095
#        270550
#
# Disc length: 3764 seconds
#
# Revision: 1
# Processed by: cddbd v1.5.2PL0 Copyright (c) Steve Scherf et al.
# Submitted via: ExactAudioCopy v1.1
#
DISCID=400eb216
DTITLE=Billie Holiday and Lester Young - Complete Billie Holiday and Leste
DTITLE=r Young [CD 2on3)
DYEAR=2003
DGENRE=Jazz
TTITLE0=My First Impression Of You
TTITLE1=My First Impression Of You (Prise Master)
TTITLE2=When You're Smiling (Prise Master)
TTITLE3=When You're Smiling
TTITLE4=I Can't Believe That You're In Love With Me
TTITLE5=I Can't Believe That You're In Love With Me (Prise Master)
TTITLE6=If Dreams Come True (Prise Master)
TTITLE7=If Dreams Come True
TTITLE8=Now They Call It Swing
TTITLE9=Now They Call It Swing (Prise Master)
TTITLE10=Back In Your Own Back Yard (Prise Master)
TTITLE11=Back In Your Own Back Yard
TTITLE12=When A Woman Loves A Man
TTITLE13=The Very Thought Of You
TTITLE14=I Can't Get Started (Prise Master)
TTITLE15=I Can't Get Started
TTITLE16=I've Got A Date With A Dream
TTITLE17=I've Got A Date With A Dream (Prise Master)
TTITLE18=You Can't Be Mine
TTITLE19=Everybody's Laughing
TTITLE20=Here It Is Tomorrow Again
TTITLE21=Say It With A Kiss
EXTD=
EXTT0=
EXTT1=
EXTT2=
EXTT3=
EXTT4=
EXTT5=
EXTT6=
EXTT7=
EXTT8=
EXTT9=
EXTT10=
EXTT11=
EXTT12=
EXTT13=
EXTT14=
EXTT15=
EXTT16=
EXTT17=
EXTT18=
EXTT19=
EXTT20=
EXTT21=
PLAYORDER=
